<svg width="200" height="142.4453526298768" viewBox="0 0 200 142.4453526298768" style="background: rgba(0,0,0,0);"><defs id="SvgjsDefs4470"><linearGradient id="SvgjsLinearGradient4475"><stop id="SvgjsStop4476" stop-color="#00ff8f" offset="0"></stop><stop id="SvgjsStop4477" stop-color="#00a1ff" offset="1"></stop></linearGradient></defs><g id="SvgjsG4471" featurekey="symbolFeature-0" transform="matrix(1.1111111111111112,0,0,1.1111111111111112,44.44444444444444,-5.555555555555555)" fill="#a0e4b0"><path xmlns="http://www.w3.org/2000/svg" d="M61.25,50v33.75h-5.625V27.5h22.5v-4.406h10.969l-1.656-1.641l1.688-1.641h-11V5h-33.75v78.75H38.75v-45H5v22.5h22.5V95h45  V72.5H95V50H61.25z M70.333,10h3.833v3.833h-3.833V10z M63.5,10h3.833v3.833H63.5V10z M12.708,47.875H8.875v-3.834h3.833V47.875z   M19.291,47.875h-3.833v-3.834h3.833V47.875z M84.458,58.875h-3.833v-3.834h3.833V58.875z M91.041,58.875h-3.833v-3.834h3.833  V58.875z"></path></g><g id="SvgjsG4472" featurekey="nameFeature-0" transform="matrix(0.801013195646153,0,0,0.801013195646153,-1.6023634646876335,110.38864222543212)" fill="url(#SvgjsLinearGradient4475)"><path d="M11.436 12.02 c4.78 0 8.6688 3.8881 8.6688 8.6684 s-3.8889 8.6688 -8.6688 8.6688 l-6.3673 0 l0 10.663 l-0.76688 0 l0 -27.233 l-2.3014 0 l0 -0.76726 l9.4356 0 z M5.0684 12.786999999999999 l0 15.803 l3.222 0 l0 -15.803 l-3.222 0 z M11.436 28.589 c4.3568 0 7.9016 -3.5443 7.9016 -7.9012 s-3.5447 -7.9016 -7.9016 -7.9016 l-2.378 0 l0 15.802 l2.378 0 z M35.948 28.372 l2.2618 -3.6209 l-8.014 -11.96 l-4.6325 0 z M45.929 12.02 l0.91387 0 l-10.496 17.173 l0 10.827 l-0.77391 0 l0 -10.823 l-11.453 -17.177 l6.4867 0 l0.12055 0.18277 l7.9296 11.83 z M50.88 12.02 l19.623 -0.000039062 l0 0.7568 l-7.4717 0 l0 27.243 l-4.6795 0 l0 -27.243 l-7.4717 0 l0 -0.75676 z M62.276 39.26256 l0 -26.486 l-3.1698 0 l0 26.486 l3.1698 0 z M88.52000000000001 12 l0.77777 0 l0 28 l-0.77777 0 l0 -11.628 l-13.222 0 l0 11.628 l-0.77777 0 l0 -28 l0.77777 0 l0 11.628 l13.222 0 l0 -11.628 z M88.52000000000001 27.594 l0 -3.1889 l-13.222 0 l0 3.1889 l13.222 0 z M107.32000000000001 12 c7.72 0 14 6.2804 14 14 s-6.28 14 -14 14 s-14 -6.2804 -14 -14 s6.28 -14 14 -14 z M97.2552 34.5928 l0 -17.186 c-1.9791 2.315 -3.1784 5.3156 -3.1784 8.5928 s1.199 6.2776 3.1784 8.5928 z M107.32000000000001 39.24328 c7.302 0 13.243 -5.9412 13.243 -13.243 s-5.9412 -13.243 -13.243 -13.243 c-3.6256 0 -6.914 1.4654 -9.308 3.8337 l0 18.819 c2.394 2.3683 5.6828 3.8337 9.308 3.8337 z M141.782 12 l0.71984 0 l0 28 l-16.462 -19.62 l0 19.619 l-0.72024 0 l0 -28 l16.462 19.722 l0 -19.722 z M141.782 37.9338 l-0.00039062 -5.048 l-15.742 -18.808 l0 5.1446 z M151.132 39.2362 l12.086 0 l0 0.76379 l-16.698 0 l0 -28 l4.6118 0 l0 27.236 z M150.36800000000002 39.2362 l0.000039062 -26.472 l-3.0843 0 l0 26.472 l3.0843 0 z M178.138 12.757000000000001 l-5.0704 -0.000039062 l0 26.486 l5.0704 0 l0 0.7568 l-10.897 0 l0 -0.75676 l5.0704 0 l0 -26.486 l-5.0704 0 l0 -0.7568 l10.897 0 l0 0.7568 z M198.62199999999999 12 l0.71984 0 l0 28 l-16.462 -19.62 l0 19.619 l-0.72024 0 l0 -28 l16.462 19.722 l0 -19.722 z M198.62199999999999 37.9338 l-0.00039062 -5.048 l-15.742 -18.808 l0 5.1446 z M222.809 25.622 l8.5512 -0.000039062 l0 0.3784 c0 7.72 -6.2804 14 -14 14 s-14 -6.28 -14 -14 s6.2804 -14 14 -14 c3.0571 0 5.9616 0.96756 8.4 2.7988 l-0.4546 0.60512 c-2.3057 -1.7317 -5.0532 -2.6472 -7.9448 -2.6472 c-4.418 0 -8.3352 2.177 -10.742 5.512 c1.6547 2.1125 2.5647 4.7376 2.5647 7.4292 c0 2.8163 -0.99208 5.554 -2.7922 7.7136 c2.3835 3.5159 6.4108 5.8312 10.97 5.8312 c7.176 0 13.037 -5.7364 13.238 -12.865 l-7.7891 0 l0 -0.75676 z M204.11669999999998 26 c0 2.4578 0.67556 4.76 1.8473 6.7352 c1.5882 -1.993 2.462 -4.4796 2.462 -7.0368 c0 -2.4399 -0.805 -4.8172 -2.2598 -6.7616 c-1.2958 2.0459 -2.0494 4.4676 -2.0494 7.0632 z M243.522 12.776 c-2.6479 0 -4.9692 1.4016 -6.2788 3.4977 l14.441 10.881 l0 4.3886 l-0.16566 0 l0.16566 0.12445 l0 0.18898 c0 4.5008 -3.6618 8.162 -8.1624 8.162 s-8.162 -3.6614 -8.162 -8.162 l0.7568 0 c0 4.0832 3.3219 7.4052 7.4052 7.4052 c4.0212 0 7.3036 -3.2208 7.4036 -7.2176 l-15.566 -11.674 l0 -0.18898 c0 -4.5008 3.6614 -8.162 8.162 -8.162 s8.1624 3.6614 8.1624 8.162 l-0.7568 0 c0 -4.0832 -3.3223 -7.4052 -7.4056 -7.4052 z M250.928 27.532 l-14.056 -10.591 c-0.45344 0.92752 -0.72604 1.9588 -0.75328 3.0524 l14.809 11.107 l0 -3.568 z"></path></g></svg>